<?xml version="1.0" encoding="UTF-8" standalone="no"?>
<!-- Created with Inkscape (http://www.inkscape.org/) -->

<svg
   width="286.6619"
   height="40.000008"
   viewBox="0 0 75.84596 10.583335"
   version="1.1"
   id="svg1"
   inkscape:version="1.3 (0e150ed6c4, 2023-07-21)"
   sodipodi:docname="logo-text.svg"
   xmlns:inkscape="http://www.inkscape.org/namespaces/inkscape"
   xmlns:sodipodi="http://sodipodi.sourceforge.net/DTD/sodipodi-0.dtd"
   xmlns="http://www.w3.org/2000/svg"
   xmlns:svg="http://www.w3.org/2000/svg">
  <sodipodi:namedview
     id="namedview1"
     pagecolor="#ffffff"
     bordercolor="#000000"
     borderopacity="0.25"
     inkscape:showpageshadow="2"
     inkscape:pageopacity="0.0"
     inkscape:pagecheckerboard="0"
     inkscape:deskcolor="#d1d1d1"
     inkscape:document-units="mm"
     inkscape:zoom="4.3046016"
     inkscape:cx="111.74089"
     inkscape:cy="5.8077384"
     inkscape:window-width="3378"
     inkscape:window-height="1417"
     inkscape:window-x="-8"
     inkscape:window-y="-8"
     inkscape:window-maximized="1"
     inkscape:current-layer="layer1" />
  <defs
     id="defs1" />
  <g
     inkscape:label="Слой 1"
     inkscape:groupmode="layer"
     id="layer1"
     transform="translate(-8.5727808,-7.3092754)">
    <path
       style="font-style:italic;font-weight:900;font-size:15.875px;font-family:'Segoe UI';-inkscape-font-specification:'Segoe UI Heavy Italic';text-align:center;text-anchor:middle;stroke-width:0.28074"
       d="m 16.769598,9.7610666 h -3.387534 l -0.384453,1.8714854 h 3.090128 l -0.536783,2.451791 h -3.090128 l -0.754397,3.626911 H 8.5727808 L 10.770689,7.3092754 h 6.521183 z m 8.24034,3.6124024 q 0,1.298434 -0.58756,2.379253 -0.580306,1.073566 -1.624856,1.610349 -1.044549,0.529527 -2.451791,0.529527 -1.719155,0 -2.662153,-0.863204 -0.935742,-0.863204 -0.935742,-2.422775 0,-0.913982 0.333676,-1.791694 0.333676,-0.877713 0.928489,-1.472525 0.594813,-0.602067 1.458018,-0.921236 0.870458,-0.319168 1.987546,-0.319168 1.697395,0 2.625883,0.855951 0.92849,0.848696 0.92849,2.415522 z m -3.07562,0 q 0,-0.49326 -0.210361,-0.747143 -0.21036,-0.261138 -0.565798,-0.261138 -0.398961,0 -0.696367,0.311914 -0.297406,0.304661 -0.471498,0.848698 -0.166838,0.536782 -0.166838,1.109834 0,0.493259 0.210361,0.747143 0.217615,0.24663 0.580305,0.24663 0.594814,0 0.957504,-0.638336 0.362692,-0.638336 0.362692,-1.617602 z m 9.821673,-0.442483 h -0.0145 q -0.362692,-0.181345 -0.790667,-0.181345 -0.754397,0 -1.225895,0.435229 -0.464245,0.43523 -0.703621,1.494287 l -0.638341,3.032097 H 25.29284 l 1.008281,-4.736746 q 0.355437,-1.65387 0.464244,-2.691166 h 3.039352 q -0.0798,0.70362 -0.188599,1.429002 h 0.02902 q 0.427975,-0.826936 0.921235,-1.218642 0.500513,-0.391706 1.16061,-0.391706 0.275646,0 0.652844,0.0943 z m 8.05174,-0.609321 q 0,1.276673 -1.175119,1.900501 -1.167865,0.623828 -3.605148,0.696367 v 0.05803 q 0,0.420721 0.355436,0.660097 0.355438,0.232123 0.95025,0.232123 0.52953,0 1.26942,-0.181346 0.747143,-0.181346 1.225895,-0.427975 l -0.427975,2.023815 q -0.565798,0.268392 -1.378225,0.435229 -0.805175,0.174092 -1.610349,0.174092 -1.559572,0 -2.451792,-0.826936 -0.89222,-0.826935 -0.89222,-2.263192 0,-1.305687 0.609321,-2.408268 0.616576,-1.102581 1.69014,-1.697394 1.08082,-0.594813 2.488061,-0.594813 1.407241,0 2.176146,0.573052 0.776159,0.573052 0.776159,1.646616 z m -2.850751,-0.0145 q 0,-0.159584 -0.10155,-0.290152 -0.0943,-0.130569 -0.34093,-0.130569 -0.486005,0 -0.841443,0.369945 -0.348183,0.369945 -0.471497,1.04455 0.819681,0 1.283925,-0.24663 0.471499,-0.24663 0.471499,-0.747144 z m 9.524266,0.369945 q -0.478753,-0.311914 -1.276673,-0.311914 -0.841443,0 -1.429002,0.602067 -0.580306,0.602067 -0.580306,1.487033 0,1.175119 1.23315,1.175119 0.348183,0 0.776158,-0.101549 0.427975,-0.108807 0.768905,-0.297406 l -0.427975,2.110861 q -0.522276,0.275645 -1.146104,0.413468 -0.616575,0.137822 -1.189626,0.137822 -1.44351,0 -2.270445,-0.812428 -0.819682,-0.819681 -0.819682,-2.248684 0,-1.298434 0.623828,-2.39376 0.631082,-1.095327 1.74817,-1.711902 1.117089,-0.623829 2.517076,-0.623829 1.189627,0 1.97304,0.391706 z m 8.436192,5.034152 h -3.061111 q 0,-0.232122 0.108807,-1.320196 h -0.02902 q -1.10258,1.501541 -2.480808,1.501541 -1.095326,0 -1.697393,-0.76165 -0.594814,-0.761652 -0.594814,-2.139877 0,-0.986521 0.3772,-1.944025 0.384452,-0.957503 1.051803,-1.59584 0.674605,-0.638337 1.646617,-0.993774 0.979266,-0.355437 2.255939,-0.355437 1.74817,0 3.670432,0.449736 l -0.964758,4.548146 q -0.116061,0.515022 -0.203107,1.305688 -0.0798,0.790667 -0.0798,1.305688 z m -2.154384,-5.599949 q -0.174092,-0.04353 -0.442483,-0.04353 -0.580306,0 -1.044551,0.333677 -0.464244,0.333675 -0.754397,1.001027 -0.282899,0.66735 -0.282899,1.334702 0,0.435229 0.1886,0.667351 0.188599,0.224869 0.464244,0.224869 0.522275,0 0.935743,-0.587559 0.413468,-0.594813 0.652844,-1.697394 z m 9.89421,0.369944 q -0.377199,-0.159584 -0.928488,-0.297406 -0.544037,-0.145077 -0.98652,-0.145077 -0.667351,0 -0.667351,0.413468 0,0.224868 0.166838,0.333675 0.166837,0.10155 0.442483,0.217615 0.863204,0.348183 1.225894,0.631083 0.369945,0.275644 0.544037,0.660098 0.174092,0.377198 0.174092,0.95025 0,0.783413 -0.456991,1.38548 -0.456989,0.594813 -1.327448,0.928488 -0.870459,0.333676 -2.110862,0.333676 -0.732636,0 -1.421748,-0.108807 -0.68186,-0.10155 -1.160613,-0.253884 l 0.398961,-2.132622 q 1.29118,0.587559 2.292207,0.587559 0.906728,0 0.906728,-0.471499 0,-0.21036 -0.203107,-0.34093 -0.195853,-0.137822 -0.500513,-0.239376 -1.088074,-0.355436 -1.530557,-0.877711 -0.442483,-0.522276 -0.442483,-1.349212 0,-0.776158 0.456991,-1.385479 0.464244,-0.609321 1.269418,-0.913981 0.812428,-0.304661 1.915009,-0.304661 0.522275,0 1.240402,0.101549 0.718129,0.0943 1.102582,0.195853 z m 6.659008,-0.05803 h -1.668379 l -0.427975,2.016562 q -0.101549,0.471498 -0.101549,0.747144 0,0.442483 0.515021,0.442483 0.435229,0 0.993774,-0.203107 L 68.18468,17.56619 q -0.340928,0.130568 -0.972011,0.224868 -0.623828,0.101549 -1.124342,0.101549 -2.139877,0 -2.139877,-2.023816 0,-0.261138 0.0943,-0.776159 0.101549,-0.515021 0.558544,-2.669406 H 63.47695 L 63.991972,10.28335 H 65.05103 L 65.406466,8.5714479 68.627163,7.8315583 68.112141,10.28335 h 1.719156 z m 8.124279,-0.101549 q 0,1.276672 -1.17512,1.900501 -1.167865,0.623829 -3.605149,0.696367 v 0.05802 q 0,0.420722 0.355438,0.660097 0.355437,0.232122 0.950251,0.232122 0.529528,0 1.269417,-0.181345 0.747144,-0.181345 1.225897,-0.427976 l -0.427977,2.023816 q -0.565797,0.268393 -1.378225,0.43523 -0.805174,0.174091 -1.610348,0.174091 -1.559572,0 -2.45179,-0.826936 -0.89222,-0.826935 -0.89222,-2.263192 0,-1.305686 0.609321,-2.408267 0.616573,-1.102582 1.690139,-1.697395 1.080819,-0.594813 2.48806,-0.594813 1.407242,0 2.176146,0.573052 0.77616,0.573053 0.77616,1.646617 z m -2.850752,-0.0145 q 0,-0.159585 -0.101549,-0.290153 -0.0943,-0.130569 -0.340928,-0.130569 -0.486007,0 -0.841443,0.369944 -0.348184,0.369946 -0.4715,1.044551 0.819683,0 1.283927,-0.24663 0.471498,-0.246629 0.471498,-0.747143 z m 9.205098,0.623828 h -0.0145 q -0.36269,-0.181345 -0.790666,-0.181345 -0.754398,0 -1.225896,0.43523 -0.464244,0.435228 -0.70362,1.494287 l -0.638336,3.032096 h -3.090127 l 1.00828,-4.736745 q 0.355437,-1.653871 0.464245,-2.691168 h 3.03935 q -0.0798,0.703621 -0.188599,1.429004 h 0.02902 q 0.427975,-0.826936 0.921236,-1.218642 0.500514,-0.391707 1.16061,-0.391707 0.275646,0 0.652845,0.0943 z"
       id="text1"
       aria-label="Forecaster" />
  </g>
</svg>
